PathFileType	4	(X/Y/Z)	walk-thru1-4-TP.trc
DataRate	CameraRate	NumFrames	NumMarkers	Units	OrigDataRate	OrigDataStartFrame	OrigNumFrames
120.00	120.00	       4	60	mm	120.00	63	       497
Frame#	Time	Top.Head			Front.Head			Rear.Head			Jaw			C7			R.Clavicle			L.Clavicle			R.Shoulder			L.Shoulder			R.Scapula			L.Scapula			R.Scap.Inf			R.Biceps.Lateral			R.Elbow			R.Elbow.Medial			R.Forearm			R.Ulna			R.Radius			R.Wrist			R.Thumb.M1			R.Thumb.M2			R.Thumb.M3			R.Finger3.M1			R.Finger3.M2			R.Finger3.M3			L.Biceps.Lateral			L.Elbow			L.Elbow.Medial			L.Forearm			L.Ulna			L.Radius			L.Wrist			L.Thumb.M1			L.Thumb.M2			L.Thumb.M3			L.Finger3.M1			L.Finger3.M2			L.Finger3.M3			V.Sacral			R.ASIS			L.ASIS			R.Thigh			R.Thigh.Front			R.Knee			R.Knee.Medial			R.Shank			R.Ankle			R.Ankle.Medial			R.Heel			R.Toe			R.MedFoot			L.Thigh			L.Knee			L.Knee.Medial			L.Shank			L.Ankle			L.Ankle.Medial			L.Heel			L.Toe			L.MedFoot			V_mid_ASIS			V_R_Knee_JC			V_L_Knee_JC			V_R_Elbow_JC			V_L_Elbow_JC			V_R_Ankle_JC			V_L_Ankle_JC			V_R_Wrist_JC			V_L_Wrist_JC			V_R_ScaTrpz_1stMC_JC			V_R_1stMC_1stPP_JC			V_R_1stPP_1stDP_JC			V_R_LunCap_3rdMC_JC			V_R_3rdMC_3rdPP_JC			V_R_3rdPP_3rdMP_JC			V_R_3rdMP_3rdDP_JC			V_L_ScaTrpz_1stMC_JC			V_L_1stMC_1stPP_JC			V_L_1stPP_1stDP_JC			V_L_LunCap_3rdMC_JC			V_L_3rdMC_3rdPP_JC			V_L_3rdPP_3rdMP_JC			V_L_3rdMP_3rdPP_JC			V_ROOT_JC			V_R_Hip_JC			V_L_Hip_JC			V_R_GlenHum_JC			V_L_GlenHum_JC			V_ForeHead_Ctr			V_Vertex			V_Sagit_Lambdoid_Suture			V_R_FrontoTemp			V_L_FrontoTemporal			V_R_ParietalOccip			V_L_ParietalOcciptal			V_R_Temporal			V_L_Temporal			V_mid_FrontRearHead			V_mid_RLGlenHumCtrs			V_C7_vert			V_C1_vert			V_Mid_Hip			
		X1	Y1	Z1	X2	Y2	Z2	X3	Y3	Z3	X4	Y4	Z4	X5	Y5	Z5	X6	Y6	Z6	X7	Y7	Z7	X8	Y8	Z8	X9	Y9	Z9	X10	Y10	Z10	X11	Y11	Z11	X12	Y12	Z12	X13	Y13	Z13	X14	Y14	Z14	X15	Y15	Z15	X16	Y16	Z16	X17	Y17	Z17	X18	Y18	Z18	X19	Y19	Z19	X20	Y20	Z20	X21	Y21	Z21	X22	Y22	Z22	X23	Y23	Z23	X24	Y24	Z24	X25	Y25	Z25	X26	Y26	Z26	X27	Y27	Z27	X28	Y28	Z28	X29	Y29	Z29	X30	Y30	Z30	X31	Y31	Z31	X32	Y32	Z32	X33	Y33	Z33	X34	Y34	Z34	X35	Y35	Z35	X36	Y36	Z36	X37	Y37	Z37	X38	Y38	Z38	X39	Y39	Z39	X40	Y40	Z40	X41	Y41	Z41	X42	Y42	Z42	X43	Y43	Z43	X44	Y44	Z44	X45	Y45	Z45	X46	Y46	Z46	X47	Y47	Z47	X48	Y48	Z48	X49	Y49	Z49	X50	Y50	Z50	X51	Y51	Z51	X52	Y52	Z52	X53	Y53	Z53	X54	Y54	Z54	X55	Y55	Z55	X56	Y56	Z56	X57	Y57	Z57	X58	Y58	Z58	X59	Y59	Z59	X60	Y60	Z60	

63	0.517	-333.77133	96.65816	1566.80957	-232.82823	86.21304	1467.25146	-446.15533	97.07055	1486.01575	-263.08578	69.99259	1326.21680	-463.11972	77.64879	1377.00854	-387.11115	-38.30305	1290.89563	-360.24808	174.55972	1294.16345	-442.03360	-112.42521	1289.31873	-405.61996	271.70828	1294.82312	-516.44281	-6.61032	1304.69006	-505.53775	176.19572	1301.36731	-564.74841	10.48480	1222.96875	-439.04370	-169.18912	1150.68958	-489.79300	-191.28204	995.49609	-515.86737	-119.47778	981.66882	-421.34579	-190.52065	912.62549	-460.26761	-216.63969	831.76453	-396.93118	-178.48514	777.36450	-406.08243	-219.10597	745.71661	-376.86682	-182.44328	724.92004	-366.97525	-167.17786	690.89661	-361.27863	-154.96039	650.84302	-395.24210	-233.77191	668.39563	-398.37796	-215.29799	619.61102	-410.91888	-197.99265	584.77722	-418.69333	333.03201	1150.04407	-465.89197	349.46680	1006.93250	-490.46048	272.48108	997.33777	-380.34894	329.61151	945.52161	-385.66327	368.13040	854.31628	-332.60785	310.86682	814.79510	-323.43134	359.04752	788.47003	-300.58316	318.05542	780.21906	-288.06870	294.01654	745.25403	-281.06784	286.35620	693.41327	-294.13266	356.08905	705.62561	-287.54828	350.67941	667.99255	-287.11911	332.28903	625.47937	-582.79944	69.89513	915.56702	-388.14520	-84.90504	969.25342	-393.00018	230.67297	955.42328	-346.20792	-130.77892	589.18677	-261.57245	-70.18832	501.86771	-314.50208	-104.15964	443.38828	-294.66971	9.10636	440.62729	-401.82422	-48.95207	290.62161	-586.36462	-50.15857	156.35095	-553.93225	36.93120	157.56175	-640.59973	13.38013	161.06519	-483.03439	-47.20124	62.54323	-503.85031	0.44475	104.89583	-399.09683	246.57207	578.30084	-376.82965	212.54237	442.63568	-360.39246	91.65384	430.13486	-387.85504	147.37660	247.64362	-470.58463	162.41940	63.64670	-456.43521	71.66842	82.42831	-530.55164	112.60318	42.21860	-324.30893	128.31522	38.91812	-381.44635	93.01536	61.20594																																																																																																																															
64	0.525	-327.95450	95.70531	1566.47339	-227.72812	86.14398	1466.57300	-440.77252	95.97026	1486.18713	-258.60712	70.49265	1325.90857	-457.20007	78.55711	1376.83667	-381.62454	-38.16985	1290.30176	-354.75131	175.30829	1293.75952	-437.52747	-111.55322	1289.37207	-399.91187	271.98563	1294.77405	-511.59497	-5.97768	1305.21692	-500.22641	176.61331	1301.30103	-559.15271	11.45265	1223.24939	-434.46332	-168.18121	1150.20349	-486.81100	-189.91547	995.69031	-513.11322	-118.21676	982.34283	-418.33914	-189.35229	911.94769	-457.94440	-215.99486	831.61578	-394.80255	-178.50049	776.15686	-405.21902	-218.30638	745.14484	-376.62756	-181.69116	724.04443	-365.65793	-166.37744	690.22632	-360.60681	-154.30798	649.29132	-394.30106	-233.28716	668.06915	-398.63708	-214.31247	619.00842	-410.87497	-197.45294	584.49115	-412.74829	333.00641	1150.39502	-460.56161	350.07101	1007.24414	-485.23874	273.06631	996.93262	-374.61987	330.53113	945.25806	-381.16998	368.30997	853.87567	-328.75626	310.97443	813.76764	-318.98669	359.42859	788.15802	-296.94012	316.68250	779.99573	-283.99918	292.98294	745.73419	-278.27646	284.99762	692.74121	-288.81146	356.06534	705.71490	-282.14960	349.49750	667.43909	-282.22995	332.11279	625.77063	-578.56079	70.00871	915.57733	-383.29861	-84.40035	970.24329	-390.13116	231.02563	955.31854	-338.32022	-130.86073	590.73126	-253.11751	-69.70676	504.25671	-305.22650	-103.86838	444.59760	-283.40588	12.13880	442.01239	-389.62128	-47.84452	290.01776	-570.90094	-49.95017	152.36200	-534.42761	35.60729	155.16629	-625.91278	13.90239	155.72345	-465.17538	-45.83398	62.08421	-488.29034	1.71144	104.15208	-396.55405	247.15688	577.84094	-376.37982	212.49060	442.50278	-359.94696	91.88632	429.42371	-386.97980	147.47319	247.59793	-470.54135	162.53885	63.44607	-456.57492	71.86726	82.41734	-530.64600	112.76743	42.14599	-324.35733	128.24400	38.89555	-381.14612	92.93805	61.23729																																																																																																																															
65	0.533	-322.03534	95.55777	1565.59302	-222.25659	86.12785	1465.60657	-435.02548	96.95226	1486.28735	-254.05853	71.08565	1325.21167	-451.78043	77.22842	1377.42102	-377.33698	-37.88181	1290.30225	-349.68478	175.86043	1293.94360	-432.59137	-111.31059	1288.99756	-394.38550	272.04373	1293.83228	-506.94473	-4.91652	1305.33118	-496.65536	177.99834	1301.66370	-554.43732	11.81042	1223.03357	-430.77518	-167.73654	1149.77136	-483.43860	-189.25670	995.82886	-509.46481	-117.78395	982.33533	-415.96576	-189.32329	911.82483	-455.55356	-215.02971	831.02698	-394.30237	-177.36302	776.31219	-403.19290	-217.95728	744.18158	-374.90936	-181.47722	722.77716	-365.43469	-164.56747	688.91138	-358.99567	-154.04858	648.46735	-394.21133	-232.85956	667.56494	-397.75903	-213.92998	618.61420	-410.32968	-196.56625	584.12457	-407.72028	334.08493	1150.50574	-456.33371	351.09674	1007.29010	-481.20886	274.46405	997.35223	-369.46118	330.22156	944.80457	-376.53641	369.02817	853.72058	-324.33337	310.49802	813.61987	-313.79001	359.26022	788.74170	-293.41129	315.43881	779.54315	-279.32239	291.05334	745.40894	-275.99658	285.00226	692.66467	-282.88693	355.46603	705.60480	-276.67883	349.48282	668.44043	-276.93344	332.97690	626.37531	-574.77557	69.73349	915.37408	-379.91400	-83.41233	970.08466	-385.17209	232.34412	955.56238	-330.63007	-131.34862	591.40204	-243.90732	-69.27254	506.53568	-295.91766	-103.17339	446.94153	-273.92169	11.91926	444.39789	-377.62952	-47.71548	290.78183	-555.02020	-50.08461	148.61203	-518.27808	35.12997	152.52493	-609.54742	14.55084	150.07590	-446.21057	-45.21964	61.58744	-470.43304	1.96770	103.77903	-395.12463	246.45602	577.80493	-375.79999	213.00867	442.36850	-359.54083	91.86175	429.65298	-386.25912	147.16736	246.86140	-470.35773	162.68059	63.44947	-457.27863	72.08189	82.32160	-530.80280	112.58633	42.06977	-324.26758	128.33946	38.95676	-381.32373	92.89779	61.32700																																																																																																																															
66	0.542	-316.29703	96.54722	1565.68323	-216.77039	85.49575	1465.00793	-429.51831	96.84368	1486.08630	-248.99599	71.35574	1324.83911	-447.80624	78.47693	1378.33887	-372.11798	-37.90879	1290.09399	-344.10876	176.26720	1294.17419	-427.20746	-111.18233	1288.35754	-389.16589	271.70892	1294.64209	-502.15924	-4.74132	1305.55066	-491.27878	177.88399	1301.93762	-549.87738	13.06858	1223.61035	-425.77344	-167.56425	1149.23218	-479.72549	-189.31758	995.17145	-506.17343	-116.82980	982.33490	-413.30203	-188.84061	910.72906	-453.89319	-214.51857	830.88367	-391.27695	-175.92656	775.58295	-402.47708	-217.56013	743.47028	-373.36856	-180.89424	722.15198	-364.57190	-164.57185	687.13940	-358.70685	-153.79016	647.70502	-392.49930	-232.27399	666.59540	-397.60797	-213.65546	617.92010	-410.41342	-195.71536	583.21503	-401.91229	334.18439	1150.48779	-449.99628	351.91479	1006.98718	-476.34058	275.15607	997.53778	-363.82809	331.20941	944.54742	-370.74823	368.68692	853.87897	-320.15344	309.83542	814.53949	-309.04233	358.72913	788.53613	-288.36880	315.72119	779.60010	-276.44260	290.71469	745.11615	-271.27991	284.43912	691.04950	-277.44604	355.80365	706.26245	-269.78659	350.45148	668.87384	-271.32349	332.79019	626.51697	-570.22772	69.26620	915.73676	-376.16885	-82.88660	970.76721	-383.00369	233.39749	954.79303	-323.51199	-131.73628	592.20020	-235.89734	-68.67356	508.56656	-286.61328	-103.34531	448.43042	-266.55750	11.56432	445.20398	-365.12674	-47.27351	290.96091	-538.38202	-49.48193	143.85176	-502.80612	36.65783	149.30727	-593.86346	14.28067	143.60474	-427.36511	-45.37551	61.35127	-452.74506	2.26513	102.33296	-393.44315	245.92699	577.86304	-375.38608	213.03769	442.27286	-358.25543	91.71515	429.07315	-385.06445	147.06203	246.79997	-470.30154	162.64612	63.55063	-456.69138	72.11195	82.39264	-529.98816	113.02859	42.31522	-324.26758	128.33946	38.95676	-381.38492	93.19216	61.22875																																																																																																																															
